<svg width="90" height="83" viewBox="0 0 90 83" fill="none" xmlns="http://www.w3.org/2000/svg">
<path fill-rule="evenodd" clip-rule="evenodd" d="M56 32L56 55.9918C56 59.4784 53.7419 62.5635 50.4184 63.6175L44.6435 65.449L38.8686 63.6175C35.5451 62.5635 33.2871 59.4784 33.2871 55.9918L33.2871 32C33.2871 23.3849 37.8263 15.83 44.6435 11.5966C51.4608 15.8301 56 23.3849 56 32ZM35.7883 8.29729C29.3377 14.1516 25.2871 22.6027 25.2871 32V55.9918C25.2871 61.446 28.05 66.4089 32.4344 69.321L18.4184 73.7661C13.2603 75.4019 8 71.5516 8 66.1404L8 32C8 18.7452 18.7452 8 32 8C33.289 8 34.5543 8.10162 35.7883 8.29729ZM44.6435 2.59481C40.7652 0.924984 36.4906 4.9191e-07 32 0C14.3269 -2.69914e-06 5.75065e-06 14.3269 3.4331e-06 32L0 66.1404C-2.46307e-06 76.9629 10.5207 84.6634 20.8369 81.3917L44.6435 73.8416L68.4502 81.3917C78.7664 84.6634 89.2871 76.9629 89.2871 66.1404V32C89.2871 14.3269 74.9602 2.17128e-06 57.2871 0C52.7965 0 48.5219 0.924983 44.6435 2.59481ZM53.4988 8.29729C59.9493 14.1516 64 22.6028 64 32V55.9918C64 61.446 61.2371 66.4089 56.8527 69.321L70.8686 73.7661C76.0267 75.4019 81.2871 71.5516 81.2871 66.1404V32C81.2871 18.7452 70.5419 8 57.2871 8C55.998 8 54.7327 8.10162 53.4988 8.29729Z" fill="#4F46E5"/>
</svg>
