<svg width="106" height="94" viewBox="0 0 106 94" fill="none" xmlns="http://www.w3.org/2000/svg">
<path d="M8 39.5L5 63L14 73L60.5 89.5L101 65L101.5 43L89.5 9L75 4.5L53 15.5L33 4L19.5 7L8 39.5Z" fill="#16FEAD" stroke="black"/>
<path fill-rule="evenodd" clip-rule="evenodd" d="M101.814 46.7265C103.819 42.1129 104.022 36.8097 102.184 31.9271L94.9744 12.7718C90.4651 0.791734 75.9089 -3.77642 65.363 3.47893L52.962 12.0106L40.5609 3.47893C30.015 -3.77642 15.4588 0.791734 10.9496 12.7718L3.73957 31.9271C1.90177 36.8097 2.10529 42.1129 4.11037 46.7265C-3.14589 56.0285 -0.687631 70.4317 10.6366 76.3026L39.677 91.3583C43.8692 93.5317 48.5699 94.0746 52.962 93.1135C57.354 94.0746 62.0547 93.5317 66.2469 91.3583L95.2874 76.3026C106.612 70.4317 109.07 56.0285 101.814 46.7265ZM91.5926 47.9628L52.962 21.3857L14.3313 47.9628L48.7049 82.3364C49.941 83.5725 51.3974 84.4929 52.962 85.0804C54.5266 84.4929 55.983 83.5725 57.219 82.3364L91.5926 47.9628ZM95.482 41.2635L59.7755 16.6982L69.7408 9.8422C76.1532 5.43066 85.0039 8.20828 87.7457 15.4926L94.9557 34.6479C95.7674 36.8044 95.9242 39.0958 95.482 41.2635ZM69.514 80.9644L96.9778 53.5007C99.7029 59.0436 97.8347 66.2819 91.7324 69.4456L69.514 80.9644ZM36.4099 80.9644L8.94611 53.5007C6.22106 59.0436 8.08924 66.2819 14.1915 69.4456L36.4099 80.9644ZM10.4419 41.2635L46.1484 16.6982L36.1831 9.8422C29.7708 5.43066 20.92 8.20828 18.1782 15.4926L10.9682 34.6479C10.1565 36.8044 9.99972 39.0958 10.4419 41.2635Z" fill="#00605A"/>
</svg>
